<?xml version="1.0" encoding="utf-8"?>
<!-- Generator: Adobe Illustrator 22.0.1, SVG Export Plug-In . SVG Version: 6.00 Build 0)  -->
<svg version="1.1" id="Layer_1" xmlns="http://www.w3.org/2000/svg" xmlns:xlink="http://www.w3.org/1999/xlink" x="0px" y="0px"
	 viewBox="0 0 800 114" style="enable-background:new 0 0 800 114;" xml:space="preserve">
<style type="text/css">
	.st0{fill:#009ADE;}
	.st1{fill:#003764;}
	.st2{fill:#410099;}
	.st3{fill:#7473C0;}
	.st4{fill:#FF647D;}
</style>
<g>
	<g>
		<polygon class="st0" points="137.2,22.8 137.2,11.5 131.5,11.5 131.5,28.4 148.4,28.4 148.4,22.8 		"/>
		<polygon class="st1" points="159.7,0.2 131.5,0.2 131.5,8.6 137.1,8.6 137.1,5.8 154.1,5.8 154.1,22.8 151.3,22.8 151.3,28.4 
			159.7,28.4 		"/>
		<g>
			<path class="st1" d="M167.2,0.5h8.6v20.7h12.3v7.1h-20.9V0.5z"/>
			<path class="st1" d="M191.8,0.5h21.6v7.1h-13v3.5h11.1v6.6h-11.1v10.6h-8.6V0.5z"/>
		</g>
		<path class="st0" d="M235.5,28.5h-15.6V0.4h15.6v1.8h-13.6v10.6h12.8v1.8h-12.8v12h13.6V28.5z"/>
		<path class="st0" d="M262.7,28.5h-2L243.8,3.6h-0.2c0.2,3,0.2,5.2,0.2,6.7v18.2H242V0.4h2l16.9,24.9h0.1c-0.1-2.3-0.2-4.5-0.2-6.6
			V0.4h1.9V28.5z"/>
		<path class="st0" d="M286.3,28.5h-15.6V0.4h15.6v1.8h-13.6v10.6h12.8v1.8h-12.8v12h13.6V28.5z"/>
		<path class="st0" d="M294.8,16.3v12.2h-2V0.4h6.8c3.5,0,6.1,0.6,7.8,1.9c1.7,1.3,2.5,3.2,2.5,5.8c0,1.9-0.5,3.5-1.5,4.8
			c-1,1.3-2.5,2.2-4.6,2.8l7.7,12.8h-2.4l-7.3-12.2H294.8z M294.8,14.6h5.4c2.4,0,4.3-0.5,5.6-1.6c1.3-1.1,2-2.6,2-4.7
			c0-2.1-0.6-3.7-1.9-4.7c-1.3-1-3.4-1.5-6.4-1.5h-4.7V14.6z"/>
		<path class="st0" d="M327.4,14.1h10.3v12.5c-2.7,1.1-5.7,1.7-9.1,1.7c-4.4,0-7.8-1.2-10.1-3.7s-3.5-5.9-3.5-10.4
			c0-2.8,0.6-5.3,1.7-7.4c1.2-2.2,2.8-3.8,5-5c2.2-1.2,4.7-1.8,7.5-1.8c3,0,5.8,0.6,8.2,1.7l-0.8,1.7c-2.4-1.1-4.9-1.7-7.5-1.7
			c-3.7,0-6.6,1.1-8.7,3.4s-3.2,5.3-3.2,9c0,4.1,1,7.2,3.1,9.3c2,2.1,5,3.1,9,3.1c2.6,0,4.7-0.4,6.5-1.1v-9.7h-8.3V14.1z"/>
		<path class="st0" d="M351.2,15.7l8.3-15.3h2.1l-9.4,17.1v10.8h-2V17.7l-9.5-17.3h2.3L351.2,15.7z"/>
	</g>
	<path class="st2" d="M177.9,89.7c0,7.8-2.1,13.9-6.4,18.3c-4.3,4.4-9.9,6.6-17.1,6.6c-7,0-12.7-2.2-16.8-6.6
		c-4.2-4.4-6.2-10.5-6.2-18.3V71.6c0-7.8,2.1-13.9,6.2-18.3c4.2-4.4,9.8-6.6,16.8-6.6c7.1,0,12.8,2.2,17.1,6.6
		c4.3,4.4,6.4,10.5,6.4,18.4V89.7z M168.7,71.4c0-5.8-1.2-10.1-3.7-13.1c-2.5-3-6-4.5-10.6-4.5c-4.4,0-7.8,1.5-10.2,4.5
		c-2.4,3-3.6,7.3-3.6,13.1v18.3c0,5.8,1.2,10.2,3.6,13.2c2.4,3,5.8,4.5,10.3,4.5c4.6,0,8.1-1.5,10.6-4.5c2.5-3,3.7-7.4,3.7-13.2
		V71.4z"/>
	<path class="st2" d="M198,87.6v26.1h-9.2V47.5h21.6c6.3,0,11.2,1.8,14.8,5.5c3.6,3.7,5.4,8.5,5.4,14.5c0,6-1.8,10.9-5.4,14.5
		c-3.6,3.7-8.5,5.5-14.8,5.5H198z M198,80.5h12.3c3.6,0,6.3-1.2,8.2-3.7c1.9-2.4,2.8-5.5,2.8-9.2c0-3.7-0.9-6.8-2.8-9.3
		c-1.8-2.5-4.6-3.7-8.2-3.7H198V80.5z"/>
	<path class="st2" d="M272,83h-22.5v23.7H276v7h-35.8V47.5h35.5v7.1h-26.3v21.3H272V83z"/>
	<path class="st2" d="M294.5,85.2v28.5h-9.2V47.6h19.5c6.4,0,11.3,1.6,14.8,4.9c3.5,3.2,5.2,7.9,5.2,13.9c0,3.4-0.8,6.5-2.4,9.1
		c-1.6,2.6-4,4.6-7,6c3.4,1.2,5.9,3.1,7.4,5.7s2.3,6,2.3,9.9v5.8c0,2,0.2,3.9,0.6,5.7c0.4,1.8,1.1,3.1,2.1,4.1v1h-9.5
		c-1-1-1.7-2.5-2-4.6c-0.3-2-0.5-4.2-0.5-6.3v-5.6c0-3.7-0.9-6.6-2.6-8.8c-1.7-2.1-4.1-3.2-7.1-3.2H294.5z M294.5,78.1h9.8
		c3.8,0,6.7-1,8.5-3c1.8-2,2.7-4.9,2.7-8.6c0-3.8-0.9-6.7-2.7-8.8c-1.8-2.1-4.5-3.1-8.1-3.1h-10.3V78.1z"/>
	<path class="st2" d="M366.5,96.9h-19.8l-4.8,16.7h-9.6l19.9-66.1h9l19.7,66.1h-9.6L366.5,96.9z M348.8,89.6h15.7l-7.7-26.9h-0.3
		L348.8,89.6z"/>
	<path class="st2" d="M422.3,54.6h-17.6v59h-9.3v-59H378v-7.1h44.3V54.6z"/>
	<path class="st2" d="M473.6,89.7c0,7.8-2.1,13.9-6.4,18.3c-4.3,4.4-9.9,6.6-17.1,6.6c-7,0-12.7-2.2-16.8-6.6
		c-4.2-4.4-6.2-10.5-6.2-18.3V71.6c0-7.8,2.1-13.9,6.2-18.3c4.2-4.4,9.8-6.6,16.8-6.6c7.1,0,12.8,2.2,17.1,6.6
		c4.3,4.4,6.4,10.5,6.4,18.4V89.7z M464.4,71.4c0-5.8-1.2-10.1-3.7-13.1c-2.5-3-6-4.5-10.6-4.5c-4.4,0-7.8,1.5-10.2,4.5
		c-2.4,3-3.6,7.3-3.6,13.1v18.3c0,5.8,1.2,10.2,3.6,13.2c2.4,3,5.8,4.5,10.3,4.5c4.6,0,8.1-1.5,10.6-4.5c2.5-3,3.7-7.4,3.7-13.2
		V71.4z"/>
	<path class="st2" d="M493.6,85.2v28.5h-9.2V47.6h19.5c6.4,0,11.3,1.6,14.8,4.9c3.5,3.2,5.2,7.9,5.2,13.9c0,3.4-0.8,6.5-2.4,9.1
		c-1.6,2.6-4,4.6-7,6c3.4,1.2,5.9,3.1,7.4,5.7s2.3,6,2.3,9.9v5.8c0,2,0.2,3.9,0.6,5.7c0.4,1.8,1.1,3.1,2.1,4.1v1h-9.5
		c-1-1-1.7-2.5-2-4.6c-0.3-2-0.5-4.2-0.5-6.3v-5.6c0-3.7-0.9-6.6-2.6-8.8c-1.7-2.1-4.1-3.2-7.1-3.2H493.6z M493.6,78.1h9.8
		c3.8,0,6.7-1,8.5-3c1.8-2,2.7-4.9,2.7-8.6c0-3.8-0.9-6.7-2.7-8.8c-1.8-2.1-4.5-3.1-8.1-3.1h-10.3V78.1z"/>
	<path class="st3" d="M568.7,84.3h-23.2v29.4h-9.2V47.5h36.4v7.1h-27.2v22.6h23.2V84.3z"/>
	<path class="st3" d="M608,96.9h-19.8l-4.8,16.7h-9.6l19.9-66.1h9l19.7,66.1h-9.6L608,96.9z M590.2,89.6h15.7l-7.7-26.9H598
		L590.2,89.6z"/>
	<path class="st3" d="M630,113.6V47.5h18.4c6.3,0,11.3,1.5,14.9,4.4c3.6,3,5.4,7.4,5.4,13.3c0,3.1-0.8,5.8-2.3,8.2s-3.7,4.1-6.5,5.3
		c3.9,0.6,6.8,2.5,8.9,5.5c2.1,3,3.1,6.6,3.1,10.6c0,6.1-1.8,10.7-5.3,13.9c-3.5,3.2-8.3,4.8-14.5,4.8H630z M639.2,76.2h10.5
		c3-0.1,5.3-1.1,7-2.9c1.7-1.8,2.5-4.4,2.5-7.8c0-3.6-0.9-6.4-2.8-8.2c-1.9-1.8-4.6-2.7-8.2-2.7h-9.1V76.2z M639.2,82.8v23.8H652
		c3.3,0,5.9-1,7.7-3c1.8-2,2.7-4.9,2.7-8.6c0-3.6-0.9-6.5-2.7-8.7s-4.3-3.3-7.5-3.4h-0.5H639.2z"/>
	<path class="st3" d="M690.7,85.2v28.5h-9.2V47.6H701c6.4,0,11.3,1.6,14.8,4.9c3.5,3.2,5.2,7.9,5.2,13.9c0,3.4-0.8,6.5-2.4,9.1
		c-1.6,2.6-4,4.6-7,6c3.4,1.2,5.9,3.1,7.4,5.7s2.3,6,2.3,9.9v5.8c0,2,0.2,3.9,0.6,5.7c0.4,1.8,1.1,3.1,2.1,4.1v1h-9.5
		c-1-1-1.7-2.5-2-4.6c-0.3-2-0.5-4.2-0.5-6.3v-5.6c0-3.7-0.9-6.6-2.6-8.8c-1.7-2.1-4.1-3.2-7.1-3.2H690.7z M690.7,78.1h9.8
		c3.8,0,6.7-1,8.5-3c1.8-2,2.7-4.9,2.7-8.6c0-3.8-0.9-6.7-2.7-8.8c-1.8-2.1-4.5-3.1-8.1-3.1h-10.3V78.1z"/>
	<path class="st3" d="M743.4,113.6h-9.2V47.5h9.2V113.6z"/>
	<path class="st3" d="M798.4,93.8l0.1,0.3c0.1,6.5-1.7,11.6-5.5,15.2c-3.8,3.6-8.9,5.4-15.5,5.4c-6.8,0-12.2-2.2-16.3-6.5
		c-4-4.3-6.1-10.4-6.1-18.3V71.5c0-7.8,2-13.9,6-18.3c4-4.4,9.3-6.6,16-6.6c6.8,0,12.1,1.7,15.9,5.2c3.8,3.5,5.6,8.6,5.5,15.3
		l-0.1,0.3h-8.9c0-4.7-1-8.2-3.1-10.4c-2.1-2.2-5.2-3.3-9.3-3.3c-4.1,0-7.2,1.5-9.4,4.6s-3.3,7.4-3.3,13.1v18.5
		c0,5.8,1.1,10.2,3.4,13.2c2.3,3.1,5.5,4.6,9.7,4.6c4,0,7-1.1,9-3.3c2-2.2,3-5.7,3-10.6H798.4z"/>
	<polygon class="st2" points="56.7,17.2 56.7,17.2 56.7,17.2 	"/>
	<polygon class="st2" points="56.7,17.2 56.7,17.2 56.7,17.2 	"/>
	<g>
		<path class="st2" d="M44.1,84.4c0.8-2,0.4-4.3-1.2-5.8L35.4,71c-1.5-1.5-3.8-2-5.8-1.2l-8.9,3.7l-4,23.8l0,0l23.8-4L44.1,84.4z"/>
		<path class="st2" d="M73,21.2l-3.7,8.9c-0.8,2-0.4,4.3,1.2,5.8l7.6,7.6c1.5,1.5,3.8,2,5.8,1.2l8.9-3.7l4-23.8L73,21.2z"/>
		<path class="st2" d="M67,85.3c-0.8-2-2.8-3.3-4.9-3.3H51.3c-2.2,0-4.1,1.3-4.9,3.3l-3.7,9l14,19.7h0.1l14-19.7L67,85.3z"/>
		<path class="st2" d="M93.7,43.3L84.8,47c-2,0.8-3.3,2.8-3.3,4.9v10.7c0,2.2,1.3,4.1,3.3,4.9l9,3.7l19.7-14v0L93.7,43.3z"/>
		<path class="st2" d="M83.9,69.8c-2-0.8-4.3-0.4-5.8,1.2l-7.6,7.6c-1.5,1.5-2,3.8-1.2,5.8l3.7,9l23.8,4l0,0l-4-23.8L83.9,69.8z"/>
		<path class="st2" d="M20.6,41l8.9,3.7c2,0.8,4.3,0.4,5.8-1.2l7.6-7.6c1.5-1.5,2-3.8,1.2-5.8l-3.7-8.9l-23.8-4L20.6,41z"/>
		<path class="st2" d="M28.6,67.6c2-0.8,3.3-2.8,3.3-4.9V51.9c0-2.2-1.3-4.1-3.3-4.9l-8.9-3.7L0,57.3v0l19.7,14L28.6,67.6z"/>
		<path class="st2" d="M42.7,20.2l3.7,8.9c0.8,2,2.8,3.3,4.9,3.3h10.7c2.2,0,4.1-1.3,4.9-3.3l3.7-8.9l-14-19.7L42.7,20.2z"/>
	</g>
	<g>
		<path class="st3" d="M16.6,97.4l10,10c0,0,0,0,0.1,0.1c2.7,2.7,7.2,1.7,8.6-1.8l5.1-12.3L16.6,97.4z"/>
		<path class="st3" d="M96.8,17.2L96.8,17.2l-10-10.1c0,0,0,0-0.1-0.1c-2.7-2.7-7.2-1.7-8.6,1.8L73,21.2L96.8,17.2z"/>
		<path class="st3" d="M70.7,94.3l-14,19.7h14.2c0,0,0.1,0,0.1,0c3.8,0,6.3-3.9,4.8-7.4L70.7,94.3z"/>
		<path class="st3" d="M113.4,43.1C113.4,43,113.4,43,113.4,43.1c0-3.8-3.9-6.4-7.4-4.9l-12.3,5.1l19.7,14V43.1z"/>
		<path class="st3" d="M105.1,78.6l-12.3-5.1l4,23.8l10-10c0,0,0,0,0.1-0.1C109.6,84.6,108.6,80.1,105.1,78.6z"/>
		<path class="st3" d="M8.3,35.9L20.6,41l-4-23.8l0,0l-10,10c0,0,0,0-0.1,0.1C3.9,29.9,4.8,34.4,8.3,35.9z"/>
		<path class="st3" d="M7.4,76.4l12.3-5.1L0,57.3v14.2c0,0,0,0.1,0,0.1C0,75.3,3.9,77.8,7.4,76.4z"/>
		<path class="st3" d="M42.7,20.2l14-19.7l0,0H42.5c0,0-0.1,0-0.1,0c-3.8,0-6.3,3.9-4.8,7.4L42.7,20.2z"/>
	</g>
	<g>
		<g>
			<g>
				<path class="st4" d="M8.3,78.6c-3.5,1.4-4.4,6-1.8,8.6c0,0,0,0,0.1,0.1l10,10l4-23.8L8.3,78.6z"/>
			</g>
			<g>
				<path class="st4" d="M92.2,41l12.2-5.1c3.5-1.4,4.4-6,1.8-8.6c0,0,0,0-0.1-0.1l-10-10l0,0L92.2,41z"/>
			</g>
			<g>
				<path class="st4" d="M37.4,106.6c-1.4,3.5,1.1,7.4,4.8,7.4c0,0,0.1,0,0.1,0h14.1L42.4,94.3L37.4,106.6z"/>
			</g>
			<g>
				<path class="st4" d="M105.3,76.4c3.5,1.4,7.3-1.1,7.3-4.8c0,0,0-0.1,0-0.1V57.3l-19.5,14L105.3,76.4z"/>
			</g>
			<g>
				<path class="st4" d="M77.6,105.6c1.4,3.5,5.9,4.5,8.6,1.8c0,0,0,0,0.1-0.1l9.9-10l-23.6-4L77.6,105.6z"/>
			</g>
			<g>
				<path class="st4" d="M40.2,21.2L35.1,8.9c-1.4-3.5-5.9-4.5-8.6-1.8c0,0,0,0-0.1,0.1l-10,10l0,0L40.2,21.2z"/>
			</g>
			<g>
				<path class="st4" d="M7.3,38.2C3.9,36.7,0,39.2,0,43c0,0,0,0.1,0,0.1v14.2l19.6-14L7.3,38.2z"/>
			</g>
			<g>
				<path class="st4" d="M70.2,20.3l5.1-12.3c1.4-3.5-1.1-7.4-4.8-7.4c0,0-0.1,0-0.1,0H56.3l0,0L70.2,20.3z"/>
			</g>
		</g>
	</g>
</g>
</svg>
