<?xml version="1.0" encoding="utf-8"?>
<!-- Generator: Adobe Illustrator 22.0.1, SVG Export Plug-In . SVG Version: 6.00 Build 0)  -->
<svg version="1.1" id="Layer_1" xmlns="http://www.w3.org/2000/svg"  x="0px" y="0px"
	 viewBox="0 0 843 114" style="enable-background:new 0 0 843 114;" xml:space="preserve">
<style type="text/css">
	.st0{fill:#009ADE;}
	.st1{fill:#003764;}
	.st2{fill:#00BBB4;}
	.st3{fill:#00A6CE;}
	.st4{fill:#FF8672;}
</style>
<g>
	<g>
		<polygon class="st0" points="137.2,23 137.2,11.7 131.5,11.7 131.5,28.6 148.4,28.6 148.4,23 		"/>
		<polygon class="st1" points="159.6,0.5 131.5,0.5 131.5,8.9 137.2,8.9 137.2,6.2 154,6.2 154,23 151.2,23 151.2,28.6 159.6,28.6 
					"/>
		<g>
			<path class="st1" d="M167,0.8h8.6v20.6h12.3v7.1H167V0.8z"/>
			<path class="st1" d="M191.5,0.8H213V8h-12.9v3.5h11.1V18h-11.1v10.6h-8.6V0.8z"/>
		</g>
		<path class="st0" d="M235.1,28.7h-15.5v-28h15.5v1.8h-13.5v10.6h12.8v1.8h-12.8v12h13.5V28.7z"/>
		<path class="st0" d="M262.1,28.7h-2L243.3,3.9h-0.2c0.2,3,0.2,5.2,0.2,6.7v18.1h-1.9v-28h2l16.8,24.8h0.1
			c-0.1-2.3-0.2-4.5-0.2-6.5V0.8h1.9v27.9H262.1z"/>
		<path class="st0" d="M285.6,28.7h-15.5v-28h15.5v1.8h-13.5v10.6h12.8v1.8h-12.8v12h13.5V28.7z"/>
		<path class="st0" d="M294,16.6v12.2h-2v-28h6.8c3.5,0,6.1,0.6,7.8,1.9c1.7,1.3,2.5,3.2,2.5,5.8c0,1.9-0.5,3.5-1.5,4.7
			c-1,1.3-2.5,2.2-4.6,2.8l7.7,12.7h-2.4L301,16.5h-7V16.6z M294,14.9h5.4c2.4,0,4.2-0.5,5.6-1.6c1.3-1.1,2-2.6,2-4.7
			s-0.6-3.7-1.9-4.6c-1.3-1-3.4-1.5-6.3-1.5H294V14.9z"/>
		<path class="st0" d="M326.5,14.3h10.2v12.5c-2.7,1.1-5.7,1.7-9,1.7c-4.4,0-7.7-1.2-10.1-3.7c-2.3-2.4-3.5-5.9-3.5-10.3
			c0-2.8,0.6-5.2,1.7-7.4c1.2-2.2,2.8-3.8,5-5s4.6-1.8,7.4-1.8c3,0,5.7,0.5,8.1,1.6l-0.8,1.7C333.1,2.5,330.6,2,328,2
			c-3.7,0-6.6,1.1-8.7,3.3s-3.2,5.2-3.2,9c0,4.1,1,7.2,3.1,9.3c2,2.1,5,3.1,9,3.1c2.6,0,4.7-0.4,6.5-1.1V16h-8.2V14.3z"/>
		<path class="st0" d="M350.3,16l8.3-15.2h2.1l-9.4,17.1v10.7h-2V18l-9.4-17.2h2.3L350.3,16z"/>
	</g>
	<path class="st2" d="M141,105.9h26.9v7h-36.2V46.5h9.3V105.9z"/>
	<path class="st2" d="M208.7,82.1h-22.6v23.8h26.6v7h-35.9V46.5h35.7v7.1h-26.4V75h22.6V82.1z"/>
	<path class="st2" d="M261.9,53.7h-17.7v59.2h-9.3V53.7h-17.5v-7.1h44.5V53.7z"/>
	<path class="st2" d="M278.6,56l-3.9,14.2h-4.6l0.1-14.1v-9.6h8.4V56z"/>
	<path class="st2" d="M321.8,96.2c0-3-0.9-5.5-2.6-7.5s-4.8-3.7-9.2-5.4c-6.3-1.9-11.1-4.5-14.4-7.5c-3.4-3.1-5-7.2-5-12.3
		c0-5.2,1.9-9.5,5.6-12.9c3.7-3.4,8.5-5.1,14.2-5.1c6.2,0,11.1,1.9,14.8,5.7c3.7,3.8,5.5,8.5,5.4,14.2l-0.1,0.3h-8.9
		c0-3.9-1-7-3.1-9.4s-4.8-3.6-8.2-3.6c-3.3,0-5.8,1-7.7,3.1c-1.8,2.1-2.7,4.6-2.7,7.7c0,2.9,1,5.3,2.9,7.2s5.2,3.7,9.7,5.3
		c6.1,2,10.7,4.6,13.9,7.7c3.2,3.2,4.8,7.3,4.8,12.4c0,5.4-1.9,9.7-5.6,12.9c-3.7,3.2-8.6,4.8-14.7,4.8c-5.9,0-10.9-1.7-15.3-5.2
		c-4.3-3.5-6.4-8.4-6.3-14.9l0.1-0.3h9c0,4.5,1.2,7.9,3.6,10.1s5.4,3.3,8.9,3.3c3.4,0,6.1-1,8.1-2.9
		C320.8,102.1,321.8,99.5,321.8,96.2z"/>
	<path class="st3" d="M403.7,92.9l0.1,0.3c0.1,6.5-1.7,11.6-5.5,15.2s-9,5.4-15.6,5.4c-6.8,0-12.3-2.2-16.3-6.5
		c-4.1-4.4-6.1-10.5-6.1-18.3V70.6c0-7.8,2-14,6-18.4s9.4-6.6,16.1-6.6c6.8,0,12.1,1.8,15.9,5.3s5.7,8.6,5.5,15.4l-0.1,0.3h-8.9
		c0-4.7-1-8.2-3.1-10.5c-2.1-2.2-5.2-3.3-9.3-3.3c-4.1,0-7.2,1.5-9.5,4.6c-2.2,3.1-3.3,7.4-3.3,13.1V89c0,5.8,1.1,10.2,3.4,13.3
		c2.3,3.1,5.5,4.6,9.7,4.6c4,0,7-1.1,9.1-3.3c2-2.2,3-5.7,3-10.6L403.7,92.9L403.7,92.9z"/>
	<path class="st3" d="M458.7,88.9c0,7.9-2.1,14-6.4,18.4s-10,6.6-17.2,6.6c-7.1,0-12.7-2.2-16.9-6.6c-4.2-4.4-6.3-10.5-6.3-18.4
		V70.7c0-7.8,2.1-14,6.3-18.4c4.2-4.4,9.8-6.7,16.8-6.7c7.2,0,12.9,2.2,17.2,6.6c4.3,4.4,6.4,10.6,6.4,18.4v18.3H458.7z M449.4,70.5
		c0-5.8-1.2-10.2-3.7-13.1c-2.5-3-6-4.5-10.6-4.5c-4.5,0-7.9,1.5-10.3,4.5s-3.6,7.4-3.6,13.1v18.4c0,5.8,1.2,10.3,3.6,13.3
		s5.8,4.5,10.3,4.5c4.6,0,8.1-1.5,10.6-4.5s3.7-7.4,3.7-13.3V70.5z"/>
	<path class="st3" d="M514.4,88.9c0,7.9-2.1,14-6.4,18.4c-4.3,4.4-10,6.6-17.2,6.6c-7.1,0-12.7-2.2-16.9-6.6
		c-4.2-4.4-6.3-10.5-6.3-18.4V70.7c0-7.8,2.1-14,6.3-18.4c4.2-4.4,9.8-6.7,16.8-6.7c7.2,0,12.9,2.2,17.2,6.6
		c4.3,4.4,6.4,10.6,6.4,18.4L514.4,88.9L514.4,88.9z M505.1,70.5c0-5.8-1.2-10.2-3.7-13.1c-2.5-3-6-4.5-10.6-4.5
		c-4.5,0-7.9,1.5-10.3,4.5s-3.6,7.4-3.6,13.1v18.4c0,5.8,1.2,10.3,3.6,13.3s5.8,4.5,10.3,4.5c4.6,0,8.1-1.5,10.6-4.5
		s3.7-7.4,3.7-13.3V70.5z"/>
	<path class="st3" d="M534.5,84.3v28.6h-9.3V46.6h19.6c6.4,0,11.4,1.6,14.8,4.9c3.5,3.3,5.2,7.9,5.2,14c0,3.5-0.8,6.5-2.4,9.1
		c-1.6,2.6-4,4.6-7,6c3.4,1.2,5.9,3.1,7.4,5.7c1.5,2.7,2.3,6,2.3,9.9v5.8c0,2,0.2,3.9,0.6,5.7c0.4,1.8,1.1,3.1,2.1,4.1v1h-9.6
		c-1-1-1.7-2.5-2-4.6s-0.5-4.2-0.5-6.4v-5.6c0-3.7-0.9-6.6-2.6-8.8c-1.7-2.2-4.1-3.2-7.2-3.2h-11.4V84.3z M534.5,77.3h9.9
		c3.8,0,6.7-1,8.5-3s2.7-4.9,2.7-8.6c0-3.8-0.9-6.7-2.7-8.8s-4.5-3.1-8.1-3.1h-10.3L534.5,77.3L534.5,77.3z"/>
	<path class="st3" d="M577.3,112.9V46.5h18.9c7.2,0,13.1,2.7,17.6,8c4.6,5.3,6.8,12.2,6.8,20.5v9.4c0,8.4-2.3,15.2-6.8,20.5
		c-4.6,5.3-10.4,7.9-17.6,7.9L577.3,112.9L577.3,112.9z M586.6,53.7v52.2h9.6c4.6,0,8.2-2,11-6c2.7-4,4.1-9.1,4.1-15.4V75
		c0-6.2-1.4-11.3-4.1-15.3c-2.7-4-6.4-6-11-6H586.6z"/>
	<path class="st3" d="M641.9,112.9h-9.3V46.5h9.3V112.9z"/>
	<path class="st3" d="M700.1,112.9h-9.3L665,64l-0.3,0.1v48.8h-9.3V46.5h9.3l25.8,48.8h0.3V46.5h9.3V112.9z"/>
	<path class="st3" d="M743.1,96.1h-19.9l-4.8,16.8h-9.6l20-66.3h9l19.8,66.3h-9.7L743.1,96.1z M725.3,88.8H741l-7.7-27H733
		L725.3,88.8z"/>
	<path class="st3" d="M799.1,53.7h-17.7v59.2h-9.3V53.7h-17.5v-7.1h44.5V53.7z"/>
	<path class="st3" d="M839,82.1h-22.6v23.8H843v7h-35.9V46.5h35.7v7.1h-26.4V75H839V82.1z"/>
	<path class="st4" d="M107.8,40.2c-4.4,7.6-12.5,12.3-21.5,12.3c-4.5,0-8.7-1.1-12.4-3.3c-6.2-3.6-10.5-9.6-11.9-16.5h-3
		c0.6,3,1.7,6,3.3,8.7c5,8.6,14.4,13.9,23.9,13.9c4.9,0,9.4-1.3,13.8-3.8c7-4.1,11.9-11.2,13.4-18.9h-2.7
		C110.1,35.3,109.2,37.8,107.8,40.2z"/>
	<path class="st4" d="M64.8,15.3C69.2,7.6,77.2,2.9,86.2,2.9c4.4,0,8.6,1.1,12.4,3.3c6.3,3.6,10.6,9.6,12,16.6h2.8
		c-0.6-3-1.6-5.9-3.2-8.7C105.2,5.5,96,0.2,86.3,0.2c-4.8,0-9.4,1.3-13.7,3.7C65.4,8,60.5,15,59,22.8h2.9
		C62.4,20.2,63.4,17.7,64.8,15.3z"/>
	<path class="st4" d="M103.1,37.4c-3.5,6.1-9.7,9.8-16.8,9.8c-3.5,0-6.8-0.9-9.8-2.7c-4.5-2.6-7.8-6.9-9.1-11.9h-3.1
		c0.5,2.2,1.3,4.2,2.5,6.1c4,6.9,11.6,11.2,19.4,11.2c4,0,7.7-1,11.2-3.1c5.5-3.2,9.1-8.3,10.4-14.3H105
		C104.6,34.3,103.9,35.9,103.1,37.4z"/>
	<path class="st4" d="M69.3,17.9c3.5-5.9,9.9-9.6,16.9-9.6c3.5,0,6.7,0.9,9.8,2.5c4.6,2.6,7.8,6.9,9.1,12h2.9
		c-0.4-2.3-1.2-4.5-2.3-6.5C101.9,9.5,94.8,5.6,86.2,5.6c-4.2,0-8,0.9-11.4,2.9c-5.4,3-9.2,8.4-10.5,14.3h3
		C67.8,21.1,68.4,19.5,69.3,17.9z"/>
	<path class="st4" d="M98.5,34.8c-2.5,4.4-7,7.1-12.3,7.1c-2.7,0-5.1-0.6-7.2-1.9c-2.9-1.7-5-4.2-6.2-7.3h-3
		c0.4,1.2,0.9,2.4,1.6,3.6c3.1,5.4,8.7,8.7,14.9,8.7c3.1,0,6-0.8,8.6-2.4c3.8-2.2,6.4-5.7,7.6-9.8h-3C99.2,33.4,98.9,34.1,98.5,34.8
		z"/>
	<path class="st4" d="M73.9,20.7c2.6-4.4,7.3-7.2,12.3-7.2c2.5,0,4.9,0.6,7.1,1.9c2.9,1.7,5,4.3,6.1,7.4h3c-0.4-1.3-0.9-2.5-1.6-3.7
		c-2.9-5.1-8.6-8.4-14.6-8.4c-3.2,0-6.1,0.7-8.7,2.2c-3.8,2.1-6.6,5.7-7.8,9.9h3.1C73.1,22.1,73.5,21.4,73.9,20.7z"/>
	<path class="st3" d="M41.4,51.6c7-4.1,11.9-11.2,13.4-18.9h-2.7c-0.5,2.6-1.5,5.1-2.8,7.5c-3.6,6.2-9.6,10.5-16.6,11.9V55
		C35.7,54.3,38.6,53.2,41.4,51.6z"/>
	<path class="st3" d="M15.3,49.2C7.6,44.8,2.9,36.8,2.9,27.8c0-4.5,1.1-8.7,3.3-12.5C10.6,7.6,18.6,2.9,27.7,2.9
		c4.4,0,8.6,1.1,12.4,3.3c6.3,3.6,10.6,9.6,12,16.6h2.8c-0.6-3-1.6-5.9-3.2-8.7c-5-8.6-14.2-13.9-23.9-13.9c-4.8,0-9.4,1.3-13.7,3.7
		C5.3,8.9,0,18,0,27.8c0,4.9,1.3,9.4,3.8,13.7c4.1,7,11.2,11.9,18.9,13.4v-2.8C20.1,51.5,17.6,50.6,15.3,49.2z"/>
	<path class="st3" d="M17.9,44.6c-6-3.5-9.8-9.8-9.8-16.8c0-3.5,0.9-6.8,2.6-9.8c3.5-5.9,9.9-9.6,16.9-9.6c3.5,0,6.7,0.9,9.8,2.5
		c4.6,2.6,7.8,6.9,9.1,12h2.9c-0.4-2.3-1.2-4.5-2.3-6.5C43.3,9.5,36.3,5.6,27.7,5.6c-4.2,0-8,0.9-11.4,2.9
		C9.4,12.3,5.2,19.9,5.2,27.8c0,4,1,7.7,3.1,11.1c3.1,5.4,8.5,9.2,14.5,10.6v-2.8C21,46.2,19.4,45.5,17.9,44.6z"/>
	<path class="st3" d="M38.9,47c5.5-3.2,9.1-8.3,10.4-14.3h-2.8c-0.4,1.6-1.1,3.2-2,4.7c-2.7,4.6-6.9,7.9-11.9,9.2v2.8
		C34.8,49,36.9,48.1,38.9,47z"/>
	<path class="st3" d="M20.4,40c-4.4-2.5-7.1-7.2-7.1-12.2c0-2.5,0.6-4.9,2-7.1c2.6-4.4,7.3-7.2,12.3-7.2c2.5,0,4.9,0.6,7.1,1.9
		c2.9,1.7,5,4.3,6.1,7.4h3c-0.4-1.3-0.9-2.5-1.6-3.7c-2.9-5.1-8.6-8.4-14.6-8.4c-3.2,0-6.1,0.7-8.7,2.2c-5.2,2.9-8.6,8.7-8.6,14.9
		c0,3,0.8,5.8,2.4,8.5c2.3,3.9,5.8,6.7,9.9,7.9V41C21.9,40.7,21.2,40.4,20.4,40z"/>
	<path class="st3" d="M36.3,42.5c3.8-2.2,6.4-5.7,7.6-9.8h-3c-0.3,0.7-0.6,1.4-0.9,2.1c-1.7,3-4.3,5.1-7.4,6.2v3.2
		C33.9,43.8,35.1,43.3,36.3,42.5z"/>
	<path class="st3" d="M103.1,95.7c-3.5,6.1-9.7,9.8-16.8,9.8c-3.5,0-6.8-0.9-9.8-2.7C72,100.3,68.7,96,67.4,91h-3.1
		c0.5,2.2,1.3,4.2,2.5,6.1c4,6.9,11.6,11.2,19.4,11.2c4,0,7.7-1,11.2-3.1c5.5-3.2,9.1-8.3,10.4-14.3H105
		C104.6,92.6,104,94.2,103.1,95.7z"/>
	<path class="st3" d="M98.5,93.1c-2.5,4.4-7,7.1-12.3,7.1c-2.7,0-5.1-0.6-7.2-1.9c-2.9-1.7-5-4.2-6.2-7.3h-3
		c0.4,1.2,0.9,2.4,1.6,3.6c3.1,5.4,8.7,8.7,14.9,8.7c3.1,0,6-0.8,8.6-2.4c3.8-2.2,6.4-5.7,7.6-9.8h-3C99.2,91.7,98.9,92.4,98.5,93.1
		z"/>
	<path class="st3" d="M69.4,76.2c3.5-5.9,9.9-9.6,16.9-9.6c3.5,0,6.7,0.9,9.8,2.5c4.6,2.6,7.8,6.9,9.1,12h2.9
		c-0.4-2.3-1.2-4.5-2.3-6.5c-3.8-6.8-10.9-10.7-19.4-10.7c-4.2,0-8,0.9-11.4,2.9c-5.4,3-9.2,8.4-10.5,14.3h3
		C67.8,79.4,68.5,77.8,69.4,76.2z"/>
	<path class="st3" d="M64.8,73.6c4.4-7.6,12.4-12.3,21.5-12.3c4.4,0,8.6,1.1,12.4,3.3c6.3,3.6,10.6,9.6,12,16.6h2.8
		c-0.6-3-1.6-5.9-3.2-8.7c-5-8.6-14.2-13.9-23.9-13.9c-4.8,0-9.4,1.3-13.7,3.7c-7.2,4.2-12.1,11.2-13.5,19H62
		C62.5,78.5,63.4,76,64.8,73.6z"/>
	<path class="st3" d="M73.9,79c2.6-4.4,7.3-7.2,12.3-7.2c2.5,0,4.9,0.6,7.1,1.9c2.9,1.7,5,4.3,6.1,7.4h3c-0.4-1.3-0.9-2.5-1.6-3.7
		C98,72.3,92.3,69,86.3,69c-3.2,0-6.1,0.7-8.7,2.2c-3.8,2.1-6.6,5.7-7.8,9.9h3.1C73.1,80.4,73.5,79.7,73.9,79z"/>
	<path class="st3" d="M107.8,98.5c-4.4,7.6-12.5,12.3-21.5,12.3c-4.5,0-8.7-1.1-12.4-3.3C67.6,104,63.4,98,62,91h-3
		c0.6,3,1.7,6,3.3,8.7c5,8.6,14.4,13.9,23.9,13.9c4.9,0,9.4-1.3,13.8-3.8c7-4.1,11.9-11.2,13.4-18.9h-2.7
		C110.1,93.6,109.2,96.1,107.8,98.5z"/>
	<path class="st2" d="M47.1,74.6c-3-5.4-8.2-9-14.5-10.2v2.9c1.7,0.4,3.3,1.1,4.9,1.9c4.6,2.6,7.8,6.9,9.1,12h2.9
		C49,78.8,48.2,76.6,47.1,74.6z"/>
	<path class="st2" d="M44.5,95.7c-3.5,6.1-9.7,9.8-16.8,9.8c-3.5,0-6.8-0.9-9.8-2.7c-6-3.5-9.8-9.8-9.8-16.8c0-3.5,0.9-6.8,2.6-9.8
		c2.6-4.5,6.9-7.7,11.9-9v-2.9c-2.3,0.5-4.4,1.3-6.4,2.4c-6.7,3.9-11,11.5-11,19.4c0,4,1,7.7,3.1,11.1c4,6.9,11.6,11.2,19.4,11.2
		c4,0,7.7-1,11.2-3.1C44.4,102.1,48,97,49.3,91h-2.8C46.1,92.6,45.4,94.2,44.5,95.7z"/>
	<path class="st2" d="M42.3,77.4c-2.1-3.7-5.7-6.4-9.7-7.7v3c0.7,0.3,1.5,0.6,2.2,1c2.9,1.7,5,4.3,6.1,7.4h3
		C43.5,79.8,43,78.6,42.3,77.4z"/>
	<path class="st2" d="M40,93.1c-2.5,4.4-7,7.1-12.3,7.1c-2.7,0-5.1-0.6-7.2-1.9c-4.4-2.5-7.1-7.2-7.1-12.2c0-2.5,0.6-4.9,2-7.1
		c1.7-2.9,4.3-5.1,7.4-6.2v-3.1c-1.3,0.4-2.5,0.9-3.7,1.5c-5.2,2.9-8.6,8.7-8.6,14.9c0,3,0.8,5.8,2.4,8.5c3.1,5.4,8.7,8.7,14.9,8.7
		c3.1,0,6-0.8,8.6-2.4c3.8-2.2,6.4-5.7,7.6-9.8h-3C40.7,91.7,40.3,92.4,40,93.1z"/>
	<path class="st2" d="M49.3,98.5c-4.4,7.6-12.5,12.3-21.5,12.3c-4.5,0-8.7-1.1-12.4-3.3C7.7,103.1,2.9,95.1,2.9,86.1
		c0-4.5,1.1-8.7,3.3-12.5c3.6-6.2,9.5-10.5,16.5-11.9v-2.8c-3,0.6-5.9,1.6-8.7,3.2C5.3,67.1,0,76.3,0,86c0,4.9,1.3,9.4,3.8,13.7
		c5,8.6,14.4,13.9,23.9,13.9c4.9,0,9.4-1.3,13.8-3.8c7-4.1,11.9-11.2,13.4-18.9h-2.7C51.6,93.6,50.6,96.1,49.3,98.5z"/>
	<path class="st3" d="M51.6,72.4c-4.1-7.1-11.2-12-19-13.5v2.8c2.6,0.5,5.1,1.5,7.5,2.8c6.3,3.6,10.6,9.6,12,16.6h2.8
		C54.3,78.1,53.2,75.2,51.6,72.4z"/>
</g>
</svg>
