<svg id="administration" xmlns="http://www.w3.org/2000/svg" viewBox="0 0 31.41 32"><defs><style>.cls-1{fill:none;stroke:#000;stroke-width:2;stroke-linecap:round;stroke-linejoin:round;}.cls-2{fill:none;stroke:#000; stroke-width:1.5;stroke-linecap:round;stroke-linejoin:round;}</style></defs><title>administration</title>
<path class="cls-2" d="M16,1a4,4,0,1,1-4,4,4,4,0,0,1,4-4m0-1a5,5,0,1,0,5,5,5,5,0,0,0-5-5Z" transform="translate(-0.34)"/>
<path class="cls-2" d="M5.5,5A2.5,2.5,0,1,1,3,7.5,2.5,2.5,0,0,1,5.5,5m0-1A3.5,3.5,0,1,0,9,7.5,3.5,3.5,0,0,0,5.5,4Z" transform="translate(-0.34)"/>
<path class="cls-2" d="M26.5,5A2.5,2.5,0,1,1,24,7.5,2.5,2.5,0,0,1,26.5,5m0-1A3.5,3.5,0,1,0,30,7.5,3.5,3.5,0,0,0,26.5,4Z" transform="translate(-0.34)"/>
<polyline class="cls-1" points="6.82 13.5 0.5 13.5 0.5 26.83"/>
<polyline class="cls-1" points="24.41 13.5 30.91 13.5 30.91 26.83"/>
<polyline class="cls-1" points="9.16 31.5 9.16 15.61 22.16 15.5 22.16 31.5"/></svg>
