<!--
Copyright (c) 2018-2021 RTE (http://www.rte-france.com)
See AUTHORS.txt
This document is subject to the terms of the Creative Commons Attribution 4.0 International license.
If a copy of the license was not distributed with this
file, You can obtain one at https://creativecommons.org/licenses/by/4.0/.
SPDX-License-Identifier: CC-BY-4.0
-->
<svg id="export_data" data-name="export data" xmlns="http://www.w3.org/2000/svg" viewBox="0 0 32 32"><title>export-data</title><path d="M16,22.67a.67.67,0,0,1-.67-.67V.67a.67.67,0,0,1,1.34,0V22A.67.67,0,0,1,16,22.67Z" transform="translate(0 0)"/><path d="M16,22.67a.67.67,0,0,1-.47-.2l-5.34-5.33a.66.66,0,0,1,0-.94.68.68,0,0,1,1,0L16,21.06l4.86-4.86a.66.66,0,0,1,.94.94l-5.33,5.33a.67.67,0,0,1-.47.2Z" transform="translate(0 0)"/><path d="M28.67,32H3.33A3.34,3.34,0,0,1,0,28.67V22a.67.67,0,0,1,.67-.67.67.67,0,0,1,.66.67v6.67a2,2,0,0,0,2,2H28.67a2,2,0,0,0,2-2V22A.67.67,0,1,1,32,22v6.67A3.34,3.34,0,0,1,28.67,32Z" transform="translate(0 0)"/></svg>