<!--
Copyright (c) 2018-2021 RTE (http://www.rte-france.com)
See AUTHORS.txt
This document is subject to the terms of the Creative Commons Attribution 4.0 International license.
If a copy of the license was not distributed with this
file, You can obtain one at https://creativecommons.org/licenses/by/4.0/.
SPDX-License-Identifier: CC-BY-4.0
-->
<svg id="Calque_25" data-name="Calque 25" xmlns="http://www.w3.org/2000/svg" viewBox="0 0 32.1 32"><title>notification</title><path d="M31.89,26.08l-2.76-4.46a13,13,0,0,1-1.95-6.81V10.9A11.08,11.08,0,0,0,16,0,11.09,11.09,0,0,0,4.71,10.9v3.91a13,13,0,0,1-1.94,6.81L0,26.08a.75.75,0,0,0,0,.78.8.8,0,0,0,.7.4H31.2a.81.81,0,0,0,.7-.4A.78.78,0,0,0,31.89,26.08Zm-30.41.18L3.6,22.83a15.13,15.13,0,0,0,2.27-8V10.78A10,10,0,0,1,16,1,9.94,9.94,0,0,1,26,10.78v4.08a15.14,15.14,0,0,0,2.28,8L30.42,26H1.48Z" transform="translate(0.1 0)"/><path d="M19.3,27a.69.69,0,0,0-.93-.24.65.65,0,0,0-.25.91,1.9,1.9,0,0,1,.28,1,2.05,2.05,0,0,1-4.1,0,1.9,1.9,0,0,1,.28-1,.65.65,0,0,0-.25-.91.69.69,0,0,0-.93.24,3.22,3.22,0,0,0-.46,1.66,3.41,3.41,0,0,0,6.82,0A3.22,3.22,0,0,0,19.3,27Z" transform="translate(0.1 0)"/></svg>