<!--
Copyright (c) 2018-2021 RTE (http://www.rte-france.com)
See AUTHORS.txt
This document is subject to the terms of the Creative Commons Attribution 4.0 International license.
If a copy of the license was not distributed with this
file, You can obtain one at https://creativecommons.org/licenses/by/4.0/.
SPDX-License-Identifier: CC-BY-4.0
-->
<svg id="Calque_23" data-name="Calque 23" xmlns="http://www.w3.org/2000/svg" viewBox="0 0 31 31"><defs><style>.cls-1{fill:none;stroke:#000;stroke-linecap:round;stroke-linejoin:round;}</style></defs><title>reduce</title><path d="M5.5,20.5h-2a.5.5,0,0,0,0,1h2a.5.5,0,0,0,0-1ZM1,21a.5.5,0,0,0-.5.5v2a.5.5,0,0,0,1,0v-2A.5.5,0,0,0,1,21Zm0,6a.5.5,0,0,0-.5.5v2a.5.5,0,0,0,1,0v-2A.5.5,0,0,0,1,27Zm3.5,3.5h-2a.5.5,0,0,0,0,1h2a.5.5,0,0,0,0-1Zm6,0h-2a.5.5,0,0,0,0,1h2a.5.5,0,0,0,0-1ZM11,26a.5.5,0,0,0-.5.5v2a.5.5,0,0,0,1,0v-2A.5.5,0,0,0,11,26Zm.5-5.5h-2a.5.5,0,0,0,0,1h1v1a.5.5,0,0,0,1,0v-2Z" transform="translate(-0.5 -0.5)"/><rect class="cls-1" x="0.5" y="0.5" width="30" height="30"/><line class="cls-1" x1="27" y1="4" x2="18" y2="13"/><line class="cls-1" x1="23" y1="13" x2="18" y2="13"/><line class="cls-1" x1="18" y1="8" x2="18" y2="13"/></svg>