<!--
Copyright (c) 2018-2021 RTE (http://www.rte-france.com)
See AUTHORS.txt
This document is subject to the terms of the Creative Commons Attribution 4.0 International license.
If a copy of the license was not distributed with this
file, You can obtain one at https://creativecommons.org/licenses/by/4.0/.
SPDX-License-Identifier: CC-BY-4.0
-->
<svg xmlns="http://www.w3.org/2000/svg">
    <symbol id="operator-fabric" viewBox="0 0 64 64">
        <g>
            <path class="st2" d="M24.871 47.313c.451-1.128.226-2.425-.677-3.27l-4.229-4.286a3.05 3.05 0 0 0-3.27-.677l-5.019 2.086-2.255 13.42 13.42-2.255zM41.167 11.675l-2.086 5.019c-.451 1.128-.226 2.425.676 3.27l4.286 4.286a3.05 3.05 0 0 0 3.27.677l5.019-2.087 2.255-13.42zM37.784 47.82c-.451-1.128-1.579-1.86-2.763-1.86h-6.09c-1.24 0-2.312.732-2.763 1.86l-2.086 5.075 7.894 11.108h.056l7.895-11.108zM52.84 24.137l-5.019 2.087c-1.128.45-1.86 1.578-1.86 2.763v6.033c0 1.24.732 2.312 1.86 2.763l5.075 2.086 11.108-7.894zM47.313 39.08c-1.127-.451-2.424-.226-3.27.677l-4.286 4.285a3.05 3.05 0 0 0-.676 3.27l2.086 5.076 13.42 2.255-2.255-13.42zM11.62 22.84l5.018 2.087c1.128.45 2.425.225 3.271-.677l4.285-4.286a3.05 3.05 0 0 0 .677-3.27l-2.086-5.019L9.365 9.42zM16.131 37.84c1.128-.452 1.86-1.58 1.86-2.764v-6.09c0-1.24-.732-2.311-1.86-2.762l-5.019-2.087L.004 32.031l11.108 7.895zM24.082 11.112l2.086 5.018c.451 1.128 1.579 1.86 2.763 1.86h6.034c1.24 0 2.311-.732 2.763-1.86l2.086-5.018L31.92.003z"/>
        </g>
        <g>
            <path class="st3" d="M9.364 54.643l5.64 5.639.056.056c1.522 1.523 4.06.959 4.849-1.015l2.876-6.935zM54.587 9.42L48.95 3.725l-.057-.057c-1.522-1.522-4.06-.958-4.849 1.015l-2.876 6.992zM39.87 52.895l-7.894 11.108h8.063c2.143 0 3.553-2.199 2.707-4.172zM63.948 24.024c0-2.142-2.2-3.608-4.173-2.763l-6.936 2.876 11.109 7.894zM59.268 44.042l-6.936-2.876 2.255 13.42 5.64-5.638.056-.057c1.522-1.466.958-4.003-1.015-4.849zM4.684 19.964l6.936 2.876L9.364 9.42l-5.638 5.639-.057.056c-1.466 1.466-.958 4.004 1.015 4.85zM4.177 42.802l6.935-2.876L.004 32.03v8.064c0 2.086 2.2 3.496 4.173 2.707zM24.082 11.112L31.976.003h-8.063c-2.143 0-3.553 2.2-2.707 4.173z"/>
        </g>
        <path class="st4" d="M4.684 44.042c-1.973.79-2.48 3.383-1.015 4.85l.057.056 5.638 5.639 2.256-13.42zM51.994 22.84l6.879-2.876c1.974-.789 2.481-3.383 1.015-4.849l-.056-.056-5.64-5.639zM21.093 59.83c-.79 1.974.62 4.173 2.707 4.173h8.007l-7.894-11.108zM59.38 42.802c1.974.789 4.117-.62 4.117-2.707v-8.064L52.5 39.926zM43.761 59.267c.79 1.973 3.327 2.537 4.85 1.015l.056-.057 5.582-5.638-13.307-2.256zM22.672 11.675L19.796 4.74c-.79-1.974-3.327-2.538-4.85-1.015l-.056.056L9.252 9.42zM4.12 21.261c-1.917-.845-4.116.564-4.116 2.707v8.063l11.052-7.894zM39.588 11.168l2.876-6.936c.79-1.973-.62-4.172-2.707-4.172H31.75z"/>
    </symbol>
</svg>