<svg xmlns="http://www.w3.org/2000/svg">
    <symbol id="operator-fabric" viewBox="0 0 64 64">
        <g fill="#410099">
            <path class="st2" d="M6.58 12.522a.78.78 0 0 0-.18-.866l-1.119-1.134a.807.807 0 0 0-.865-.179l-1.328.552-.597 3.551 3.551-.597zM10.89 3.093L10.34 4.42a.78.78 0 0 0 .179.865l1.134 1.134a.807.807 0 0 0 .865.179l1.328-.552.597-3.55zM9.996 12.656a.794.794 0 0 0-.731-.492H7.653a.78.78 0 0 0-.73.492l-.553 1.343 2.09 2.939h.014l2.089-2.94zM13.98 6.39l-1.329.552a.794.794 0 0 0-.492.731v1.596a.78.78 0 0 0 .492.731l1.343.552 2.94-2.088zM12.517 10.343a.78.78 0 0 0-.865.18l-1.134 1.133a.807.807 0 0 0-.18.866l.553 1.342 3.55.597-.596-3.55zM3.073 6.047l1.328.552a.78.78 0 0 0 .865-.18L6.4 5.287a.807.807 0 0 0 .18-.865l-.553-1.328-3.55-.597zM4.267 10.015a.794.794 0 0 0 .492-.73V7.672a.78.78 0 0 0-.492-.731L2.939 6.39 0 8.479l2.939 2.088zM6.37 2.944l.552 1.327c.12.299.418.493.731.493H9.25a.78.78 0 0 0 .73-.493l.553-1.327L8.444.004z"/>
        </g>
        <g fill="#7473c0">
            <path class="st3" d="M2.477 14.461l1.491 1.492.015.015a.783.783 0 0 0 1.283-.269l.761-1.835zM14.442 2.496L12.95.99l-.015-.015a.783.783 0 0 0-1.283.269l-.761 1.85zM10.548 13.999l-2.089 2.939h2.133c.567 0 .94-.582.717-1.104zM16.918 6.36a.794.794 0 0 0-1.104-.73l-1.835.76 2.94 2.089zM15.68 11.656l-1.835-.76.597 3.55 1.491-1.492.015-.015c.403-.388.254-1.059-.268-1.283zM1.238 5.286l1.835.76-.596-3.55L.985 3.988l-.015.015c-.388.388-.254 1.06.268 1.283zM1.104 11.328l1.835-.76L0 8.477v2.134c0 .552.582.925 1.104.716zM6.37 2.944L8.46.004H6.325A.787.787 0 0 0 5.61 1.11z"/>
        </g>
        <path class="st4" d="M1.238 11.656A.791.791 0 0 0 .97 12.94l.015.015 1.492 1.492.596-3.55zM13.755 6.047l1.82-.761a.791.791 0 0 0 .269-1.283l-.015-.015-1.492-1.492zM5.58 15.834c-.21.522.164 1.104.716 1.104H8.414l-2.088-2.94zM15.71 11.328c.522.209 1.089-.164 1.089-.716V8.479l-2.91 2.088zM11.577 15.684a.783.783 0 0 0 1.283.269l.015-.015 1.477-1.492-3.52-.597zM5.997 3.093l-.76-1.835A.783.783 0 0 0 3.954.989l-.015.015-1.492 1.492zM1.09 5.63A.779.779 0 0 0 0 6.344V8.48l2.924-2.09zM10.473 2.959l.761-1.835C11.443.6 11.07.02 10.518.02H8.399z" fill="#ff647d"/>
    </symbol>
</svg>